M48
; DRILL file {KiCad 5.1.5-52549c5~84~ubuntu18.04.1} date Tue 16 Jun 2020 05:56:08 PM EDT
; FORMAT={-:-/ absolute / metric / decimal}
; #@! TF.CreationDate,2020-06-16T17:56:08-04:00
; #@! TF.GenerationSoftware,Kicad,Pcbnew,5.1.5-52549c5~84~ubuntu18.04.1
; #@! TF.FileFunction,Plated,1,4,PTH
FMAT,2
METRIC
T1C0.890
T2C1.000
%
G90
G05
T1
X16.51Y15.24
X20.32Y19.05
X29.845Y14.605
X36.195Y14.605
X43.815Y40.005
X43.815Y34.29
X50.165Y33.02
X50.165Y27.305
X56.515Y18.415
X56.515Y11.43
T2
X12.7Y43.18
X12.7Y40.64
X12.7Y38.1
X12.7Y35.56
X12.7Y33.02
X12.7Y30.48
X12.7Y27.94
X12.7Y25.4
X12.7Y22.86
X12.7Y20.32
X12.7Y17.78
X12.7Y15.24
X40.564Y45.06
X40.564Y42.52
X40.564Y39.98
X40.564Y37.44
X40.564Y34.9
X40.564Y32.36
X40.564Y29.82
X40.564Y27.28
X40.564Y24.74
X40.564Y22.2
X40.564Y19.66
X40.564Y17.12
X40.564Y14.58
X40.564Y12.04
X53.975Y40.005
X53.975Y37.465
X53.975Y34.925
X53.975Y32.385
X53.975Y29.845
X53.975Y27.305
X53.975Y24.765
X53.975Y22.225
X53.975Y19.685
X25.324Y45.06
X25.324Y42.52
X25.324Y39.98
X25.324Y37.44
X25.324Y34.9
X25.324Y32.36
X25.324Y29.82
X25.324Y27.28
X25.324Y24.74
X25.324Y22.2
X25.324Y19.66
X25.324Y17.12
X25.324Y14.58
X25.324Y12.04
T0
M30
