G04 #@! TF.GenerationSoftware,KiCad,Pcbnew,5.1.5-52549c5~84~ubuntu18.04.1*
G04 #@! TF.CreationDate,2020-06-18T15:22:24-04:00*
G04 #@! TF.ProjectId,ib4,6962342e-6b69-4636-9164-5f7063625858,rev?*
G04 #@! TF.SameCoordinates,PX3851b98PY542d128*
G04 #@! TF.FileFunction,Copper,L4,Bot*
G04 #@! TF.FilePolarity,Positive*
%FSLAX46Y46*%
G04 Gerber Fmt 4.6, Leading zero omitted, Abs format (unit mm)*
G04 Created by KiCad (PCBNEW 5.1.5-52549c5~84~ubuntu18.04.1) date 2020-06-18 15:22:24*
%MOMM*%
%LPD*%
G04 APERTURE LIST*
%ADD10O,1.600000X1.600000*%
%ADD11C,1.600000*%
%ADD12R,1.500000X1.500000*%
%ADD13C,1.500000*%
%ADD14O,1.700000X1.700000*%
%ADD15R,1.700000X1.700000*%
%ADD16C,1.676400*%
%ADD17C,1.780000*%
%ADD18C,1.700000*%
G04 APERTURE END LIST*
D10*
X63500000Y15875000D03*
D11*
X63500000Y18415000D03*
D10*
X69850000Y29845000D03*
D11*
X69850000Y27305000D03*
D10*
X60325000Y43180000D03*
D11*
X57785000Y43180000D03*
D10*
X61595000Y48260000D03*
D11*
X64135000Y48260000D03*
D12*
X63500000Y28575000D03*
D13*
X63500000Y23495000D03*
X66040000Y26035000D03*
D12*
X65405000Y33020000D03*
D13*
X65405000Y38100000D03*
X62865000Y35560000D03*
D14*
X33020000Y52070000D03*
D15*
X33020000Y54610000D03*
D14*
X54610000Y51435000D03*
X52070000Y51435000D03*
X49530000Y51435000D03*
X46990000Y51435000D03*
D15*
X44450000Y51435000D03*
X12065000Y15240000D03*
D14*
X12065000Y17780000D03*
X12065000Y20320000D03*
X12065000Y22860000D03*
X12065000Y25400000D03*
X12065000Y27940000D03*
X12065000Y30480000D03*
X12065000Y33020000D03*
X12065000Y35560000D03*
X12065000Y38100000D03*
X12065000Y40640000D03*
X12065000Y43180000D03*
X53340000Y19685000D03*
X53340000Y22225000D03*
X53340000Y24765000D03*
X53340000Y27305000D03*
X53340000Y29845000D03*
X53340000Y32385000D03*
X53340000Y34925000D03*
X53340000Y37465000D03*
D15*
X53340000Y40005000D03*
D16*
X24688800Y45059600D03*
X24688800Y42519600D03*
X24688800Y39979600D03*
X24688800Y37439600D03*
X24688800Y34899600D03*
X24688800Y32359600D03*
X24688800Y29819600D03*
X24688800Y27279600D03*
X24688800Y24739600D03*
X24688800Y22199600D03*
X24688800Y19659600D03*
X24688800Y17119600D03*
X24688800Y14579600D03*
X24688800Y12039600D03*
X39928800Y12039600D03*
X39928800Y14579600D03*
X39928800Y17119600D03*
X39928800Y19659600D03*
X39928800Y22199600D03*
X39928800Y24739600D03*
X39928800Y27279600D03*
X39928800Y29819600D03*
X39928800Y32359600D03*
X39928800Y34899600D03*
X39928800Y37439600D03*
X39928800Y39979600D03*
X39928800Y42519600D03*
X39928800Y45059600D03*
D17*
X55880000Y18415000D03*
X29210000Y14605000D03*
X35560000Y14605000D03*
X55880000Y11430000D03*
X43180000Y40005000D03*
X43180000Y34290000D03*
X49530000Y27305000D03*
X46990000Y40005000D03*
X44450000Y47625000D03*
X50165000Y47625000D03*
X59055000Y31750000D03*
X59055000Y25400000D03*
X15875000Y15240000D03*
X19685000Y19050000D03*
X47625000Y8255000D03*
X40005000Y8255000D03*
X61595000Y39370000D03*
X65405000Y43180000D03*
D18*
X40020300Y34991100D02*
X39928800Y34899600D01*
X53340000Y37465000D02*
X55245000Y37465000D01*
X24688800Y14579600D02*
X29184600Y14579600D01*
X29184600Y14579600D02*
X29210000Y14605000D01*
X23503407Y14579600D02*
X23478007Y14605000D01*
X24688800Y14579600D02*
X23503407Y14579600D01*
X14605000Y20320000D02*
X12065000Y20320000D01*
X23503407Y14579600D02*
X20345400Y14579600D01*
X20345400Y14579600D02*
X14605000Y20320000D01*
X55245000Y37465000D02*
X55880000Y36830000D01*
X55880000Y19685000D02*
X55880000Y18415000D01*
X51435000Y37465000D02*
X50165000Y38735000D01*
X53340000Y37465000D02*
X51435000Y37465000D01*
X46990000Y46355000D02*
X50165000Y43180000D01*
X46990000Y51435000D02*
X46990000Y46355000D01*
X50165000Y38735000D02*
X50165000Y43180000D01*
X35560000Y8255000D02*
X38735000Y5080000D01*
X35560000Y14605000D02*
X35560000Y8255000D01*
X40005000Y3810000D02*
X35560000Y8255000D01*
X44450000Y4445000D02*
X43815000Y3810000D01*
X43815000Y3810000D02*
X40005000Y3810000D01*
X55880000Y11430000D02*
X44450000Y11430000D01*
X44450000Y11430000D02*
X44450000Y4445000D01*
X63500000Y28575000D02*
X55880000Y28575000D01*
X55880000Y36830000D02*
X55880000Y28575000D01*
X55880000Y28575000D02*
X55880000Y19685000D01*
X46990000Y51435000D02*
X46990000Y54610000D01*
X65405000Y30480000D02*
X63500000Y28575000D01*
X65405000Y33020000D02*
X65405000Y30480000D01*
X46990000Y54610000D02*
X42545000Y54610000D01*
X40005000Y52070000D02*
X33020000Y52070000D01*
X42545000Y54610000D02*
X40005000Y52070000D01*
X39928800Y39979600D02*
X43154600Y39979600D01*
X43154600Y39979600D02*
X43180000Y40005000D01*
X43180000Y34290000D02*
X43180000Y29210000D01*
X43180000Y29210000D02*
X47625000Y24765000D01*
X47625000Y24765000D02*
X53340000Y24765000D01*
X10160000Y27940000D02*
X12065000Y27940000D01*
X8255000Y45720000D02*
X8255000Y29845000D01*
X27965400Y39979600D02*
X27940000Y40005000D01*
X39928800Y39979600D02*
X27965400Y39979600D01*
X27940000Y40005000D02*
X27940000Y46355000D01*
X26670000Y47625000D02*
X10160000Y47625000D01*
X8255000Y29845000D02*
X10160000Y27940000D01*
X27940000Y46355000D02*
X26670000Y47625000D01*
X10160000Y47625000D02*
X8255000Y45720000D01*
X51502919Y27305000D02*
X49530000Y27305000D01*
X47015400Y42519600D02*
X39928800Y42519600D01*
X53340000Y27305000D02*
X51502919Y27305000D01*
X8255000Y25400000D02*
X12065000Y25400000D01*
X5715000Y27940000D02*
X7620000Y26035000D01*
X7620000Y26035000D02*
X8255000Y25400000D01*
X47015400Y42519600D02*
X47015400Y40030400D01*
X5080000Y28575000D02*
X7620000Y26035000D01*
X9525000Y50800000D02*
X5080000Y46355000D01*
X5080000Y46355000D02*
X5080000Y28575000D01*
X28575000Y50800000D02*
X9525000Y50800000D01*
X38743407Y42519600D02*
X38718007Y42545000D01*
X39928800Y42519600D02*
X38743407Y42519600D01*
X31750000Y42545000D02*
X31115000Y43180000D01*
X31115000Y48260000D02*
X28575000Y50800000D01*
X38718007Y42545000D02*
X31750000Y42545000D01*
X31115000Y43180000D02*
X31115000Y48260000D01*
X41114193Y37439600D02*
X39928800Y37439600D01*
X46990000Y29845000D02*
X46355000Y30480000D01*
X46355000Y36830000D02*
X45720000Y37465000D01*
X46355000Y30480000D02*
X46355000Y36830000D01*
X45720000Y37465000D02*
X41139593Y37465000D01*
X41139593Y37465000D02*
X41114193Y37439600D01*
X53340000Y29845000D02*
X46990000Y29845000D01*
X35712400Y35204400D02*
X37947600Y37439600D01*
X35712400Y35077400D02*
X35712400Y35204400D01*
X32385000Y12065000D02*
X32385000Y31750000D01*
X29210000Y8890000D02*
X32385000Y12065000D01*
X19685000Y8890000D02*
X29210000Y8890000D01*
X32385000Y31750000D02*
X35712400Y35077400D01*
X8890000Y22860000D02*
X7620000Y21590000D01*
X37947600Y37439600D02*
X39928800Y37439600D01*
X12065000Y22860000D02*
X8890000Y22860000D01*
X7620000Y21590000D02*
X7620000Y12700000D01*
X8890000Y11430000D02*
X17145000Y11430000D01*
X7620000Y12700000D02*
X8890000Y11430000D01*
X17145000Y11430000D02*
X19685000Y8890000D01*
X44450000Y51435000D02*
X44450000Y47625000D01*
X53340000Y44450000D02*
X53340000Y40005000D01*
X50165000Y47625000D02*
X53340000Y44450000D01*
X59055000Y15240000D02*
X58394600Y14579600D01*
X53340000Y40005000D02*
X57150000Y40005000D01*
X58394600Y14579600D02*
X39928800Y14579600D01*
X63500000Y18415000D02*
X59055000Y18415000D01*
X59055000Y18415000D02*
X59055000Y15240000D01*
X59055000Y38100000D02*
X59055000Y31750000D01*
X59055000Y25400000D02*
X59055000Y15240000D01*
X57785000Y43180000D02*
X57785000Y39370000D01*
X57150000Y40005000D02*
X57785000Y39370000D01*
X57785000Y39370000D02*
X59055000Y38100000D01*
X24625300Y22136100D02*
X24688800Y22199600D01*
X12065000Y30480000D02*
X14605000Y30480000D01*
X23503407Y22199600D02*
X23478007Y22225000D01*
X24688800Y22199600D02*
X23503407Y22199600D01*
X23478007Y22225000D02*
X19050000Y22225000D01*
X19050000Y22225000D02*
X15240000Y26035000D01*
X15240000Y29845000D02*
X14605000Y30480000D01*
X15240000Y26035000D02*
X15240000Y29845000D01*
X12065000Y33020000D02*
X15875000Y33020000D01*
X23503407Y24739600D02*
X23478007Y24765000D01*
X24688800Y24739600D02*
X23503407Y24739600D01*
X23478007Y24765000D02*
X20955000Y24765000D01*
X20955000Y24765000D02*
X18415000Y27305000D01*
X18415000Y27305000D02*
X18415000Y31750000D01*
X17145000Y33020000D02*
X15875000Y33020000D01*
X18415000Y31750000D02*
X17145000Y33020000D01*
X24625300Y27216100D02*
X24688800Y27279600D01*
X23478007Y27305000D02*
X23503407Y27279600D01*
X23478007Y27321993D02*
X23478007Y27305000D01*
X19050000Y35560000D02*
X21590000Y33020000D01*
X23461014Y27305000D02*
X23478007Y27321993D01*
X22860000Y27305000D02*
X23461014Y27305000D01*
X23503407Y27279600D02*
X24688800Y27279600D01*
X12065000Y35560000D02*
X19050000Y35560000D01*
X21590000Y33020000D02*
X21590000Y28575000D01*
X21590000Y28575000D02*
X22860000Y27305000D01*
X12065000Y15240000D02*
X15875000Y15240000D01*
X23503407Y17119600D02*
X23478007Y17145000D01*
X24688800Y17119600D02*
X23503407Y17119600D01*
X23478007Y17145000D02*
X21590000Y17145000D01*
X21590000Y17145000D02*
X20320000Y18415000D01*
X20320000Y18415000D02*
X19685000Y19050000D01*
X19685000Y19050000D02*
X19685000Y19050000D01*
X42570400Y22199600D02*
X39928800Y22199600D01*
X45085000Y19685000D02*
X42570400Y22199600D01*
X53340000Y19685000D02*
X45085000Y19685000D01*
X43840400Y24739600D02*
X39928800Y24739600D01*
X46355000Y22225000D02*
X43840400Y24739600D01*
X53340000Y22225000D02*
X46355000Y22225000D01*
X52070000Y50232919D02*
X52070000Y51435000D01*
X52070000Y50165000D02*
X52070000Y50232919D01*
X61595000Y48260000D02*
X53975000Y48260000D01*
X53975000Y48260000D02*
X52070000Y50165000D01*
X49530000Y55880000D02*
X47625000Y57785000D01*
X49530000Y51435000D02*
X49530000Y55880000D01*
X33020000Y54610000D02*
X38100000Y54610000D01*
X41275000Y57785000D02*
X47625000Y57785000D01*
X38100000Y54610000D02*
X41275000Y57785000D01*
X39928800Y8331200D02*
X40005000Y8255000D01*
X63500000Y14605000D02*
X63500000Y15875000D01*
X63500000Y15875000D02*
X66040000Y15875000D01*
X66040000Y15875000D02*
X66675000Y16510000D01*
X66675000Y20320000D02*
X63500000Y23495000D01*
X66675000Y16510000D02*
X66675000Y20320000D01*
X47625000Y8255000D02*
X57150000Y8255000D01*
X57150000Y8255000D02*
X63500000Y14605000D01*
X39928800Y12039600D02*
X39928800Y8331200D01*
X65405000Y39370000D02*
X65405000Y38100000D01*
X69850000Y33655000D02*
X69850000Y29845000D01*
X65405000Y38100000D02*
X69850000Y33655000D01*
X65405000Y39160660D02*
X65405000Y38100000D01*
X65405000Y39231370D02*
X65405000Y39160660D01*
X61456370Y43180000D02*
X65405000Y39231370D01*
X60325000Y43180000D02*
X61456370Y43180000D01*
X62865000Y38100000D02*
X61595000Y39370000D01*
X62865000Y36620660D02*
X62865000Y38100000D01*
X62865000Y35560000D02*
X62865000Y36620660D01*
X65405000Y46990000D02*
X64135000Y48260000D01*
X65405000Y43180000D02*
X65405000Y46990000D01*
X68580000Y26035000D02*
X69850000Y27305000D01*
X66040000Y26035000D02*
X68580000Y26035000D01*
M02*
