G04 #@! TF.GenerationSoftware,KiCad,Pcbnew,5.1.5-52549c5~84~ubuntu18.04.1*
G04 #@! TF.CreationDate,2020-06-16T18:02:10-04:00*
G04 #@! TF.ProjectId,ib4,6962342e-6b69-4636-9164-5f7063625858,rev?*
G04 #@! TF.SameCoordinates,PX37b6b20PY542d128*
G04 #@! TF.FileFunction,Copper,L4,Bot*
G04 #@! TF.FilePolarity,Positive*
%FSLAX46Y46*%
G04 Gerber Fmt 4.6, Leading zero omitted, Abs format (unit mm)*
G04 Created by KiCad (PCBNEW 5.1.5-52549c5~84~ubuntu18.04.1) date 2020-06-16 18:02:10*
%MOMM*%
%LPD*%
G04 APERTURE LIST*
%ADD10R,1.700000X1.700000*%
%ADD11O,1.700000X1.700000*%
%ADD12C,1.676400*%
%ADD13C,1.780000*%
%ADD14C,1.700000*%
G04 APERTURE END LIST*
D10*
X12700000Y15240000D03*
D11*
X12700000Y17780000D03*
X12700000Y20320000D03*
X12700000Y22860000D03*
X12700000Y25400000D03*
X12700000Y27940000D03*
X12700000Y30480000D03*
X12700000Y33020000D03*
X12700000Y35560000D03*
X12700000Y38100000D03*
X12700000Y40640000D03*
X12700000Y43180000D03*
X53975000Y19685000D03*
X53975000Y22225000D03*
X53975000Y24765000D03*
X53975000Y27305000D03*
X53975000Y29845000D03*
X53975000Y32385000D03*
X53975000Y34925000D03*
X53975000Y37465000D03*
D10*
X53975000Y40005000D03*
D12*
X25323800Y45059600D03*
X25323800Y42519600D03*
X25323800Y39979600D03*
X25323800Y37439600D03*
X25323800Y34899600D03*
X25323800Y32359600D03*
X25323800Y29819600D03*
X25323800Y27279600D03*
X25323800Y24739600D03*
X25323800Y22199600D03*
X25323800Y19659600D03*
X25323800Y17119600D03*
X25323800Y14579600D03*
X25323800Y12039600D03*
X40563800Y12039600D03*
X40563800Y14579600D03*
X40563800Y17119600D03*
X40563800Y19659600D03*
X40563800Y22199600D03*
X40563800Y24739600D03*
X40563800Y27279600D03*
X40563800Y29819600D03*
X40563800Y32359600D03*
X40563800Y34899600D03*
X40563800Y37439600D03*
X40563800Y39979600D03*
X40563800Y42519600D03*
X40563800Y45059600D03*
D13*
X56515000Y18415000D03*
X29845000Y14605000D03*
X36195000Y14605000D03*
X56515000Y11430000D03*
X43815000Y40005000D03*
X43815000Y34290000D03*
X50165000Y27305000D03*
X50165000Y33020000D03*
X16510000Y15240000D03*
X20320000Y19050000D03*
D14*
X40655300Y34991100D02*
X40563800Y34899600D01*
X44475400Y24739600D02*
X40563800Y24739600D01*
X46990000Y22225000D02*
X44475400Y24739600D01*
X43205400Y22199600D02*
X40563800Y22199600D01*
X45720000Y19685000D02*
X43205400Y22199600D01*
X53975000Y37465000D02*
X55880000Y37465000D01*
X25323800Y14579600D02*
X29819600Y14579600D01*
X29819600Y14579600D02*
X29845000Y14605000D01*
X24138407Y14579600D02*
X24113007Y14605000D01*
X25323800Y14579600D02*
X24138407Y14579600D01*
X15240000Y20320000D02*
X12700000Y20320000D01*
X24138407Y14579600D02*
X20980400Y14579600D01*
X20980400Y14579600D02*
X15240000Y20320000D01*
X55880000Y37465000D02*
X56515000Y36830000D01*
X56515000Y36830000D02*
X56515000Y19685000D01*
X56515000Y19685000D02*
X56515000Y18415000D01*
X36195000Y10795000D02*
X36195000Y14605000D01*
X38735000Y8890000D02*
X36195000Y10795000D01*
X41910000Y8890000D02*
X38735000Y8890000D01*
X56515000Y11430000D02*
X44450000Y11430000D01*
X44450000Y11430000D02*
X41910000Y8890000D01*
X40563800Y39979600D02*
X43789600Y39979600D01*
X43789600Y39979600D02*
X43815000Y40005000D01*
X10795000Y27940000D02*
X12700000Y27940000D01*
X8890000Y29845000D02*
X10795000Y27940000D01*
X8890000Y45720000D02*
X8890000Y29845000D01*
X43815000Y34290000D02*
X43815000Y29210000D01*
X43815000Y29210000D02*
X48260000Y24765000D01*
X48260000Y24765000D02*
X53975000Y24765000D01*
X27305000Y47625000D02*
X10795000Y47625000D01*
X34950400Y39979600D02*
X27305000Y47625000D01*
X40563800Y39979600D02*
X34950400Y39979600D01*
X10795000Y47625000D02*
X8890000Y45720000D01*
X52137919Y27305000D02*
X50165000Y27305000D01*
X47650400Y42519600D02*
X40563800Y42519600D01*
X50165000Y33020000D02*
X50165000Y40005000D01*
X50165000Y40005000D02*
X47650400Y42519600D01*
X53975000Y27305000D02*
X52137919Y27305000D01*
X8890000Y25400000D02*
X12700000Y25400000D01*
X6350000Y27940000D02*
X8255000Y26035000D01*
X8255000Y26035000D02*
X8890000Y25400000D01*
X5715000Y28575000D02*
X8255000Y26035000D01*
X39378407Y42519600D02*
X39353007Y42545000D01*
X39353007Y42545000D02*
X37465000Y42545000D01*
X40563800Y42519600D02*
X39378407Y42519600D01*
X37465000Y42545000D02*
X29210000Y50800000D01*
X29210000Y50800000D02*
X10160000Y50800000D01*
X5715000Y46355000D02*
X5715000Y28575000D01*
X10160000Y50800000D02*
X5715000Y46355000D01*
X41749193Y37439600D02*
X40563800Y37439600D01*
X47625000Y29845000D02*
X46990000Y30480000D01*
X46990000Y36830000D02*
X46355000Y37465000D01*
X46990000Y30480000D02*
X46990000Y36830000D01*
X46355000Y37465000D02*
X41774593Y37465000D01*
X41774593Y37465000D02*
X41749193Y37439600D01*
X53975000Y29845000D02*
X47625000Y29845000D01*
X36347400Y35204400D02*
X38582600Y37439600D01*
X36347400Y35077400D02*
X36347400Y35204400D01*
X33020000Y12065000D02*
X33020000Y31750000D01*
X29845000Y8890000D02*
X33020000Y12065000D01*
X20320000Y8890000D02*
X29845000Y8890000D01*
X33020000Y31750000D02*
X36347400Y35077400D01*
X9525000Y22860000D02*
X8255000Y21590000D01*
X38582600Y37439600D02*
X40563800Y37439600D01*
X12700000Y22860000D02*
X9525000Y22860000D01*
X8255000Y21590000D02*
X8255000Y12700000D01*
X9525000Y11430000D02*
X17780000Y11430000D01*
X8255000Y12700000D02*
X9525000Y11430000D01*
X17780000Y11430000D02*
X20320000Y8890000D01*
X59029600Y14579600D02*
X40563800Y14579600D01*
X60960000Y36830000D02*
X60960000Y16510000D01*
X60960000Y16510000D02*
X59029600Y14579600D01*
X53975000Y40005000D02*
X57785000Y40005000D01*
X57785000Y40005000D02*
X60960000Y36830000D01*
X25260300Y22136100D02*
X25323800Y22199600D01*
X12700000Y30480000D02*
X15240000Y30480000D01*
X24138407Y22199600D02*
X24113007Y22225000D01*
X25323800Y22199600D02*
X24138407Y22199600D01*
X24113007Y22225000D02*
X19685000Y22225000D01*
X19685000Y22225000D02*
X15875000Y26035000D01*
X15875000Y29845000D02*
X15240000Y30480000D01*
X15875000Y26035000D02*
X15875000Y29845000D01*
X12700000Y33020000D02*
X16510000Y33020000D01*
X24138407Y24739600D02*
X24113007Y24765000D01*
X25323800Y24739600D02*
X24138407Y24739600D01*
X24113007Y24765000D02*
X21590000Y24765000D01*
X21590000Y24765000D02*
X19050000Y27305000D01*
X19050000Y27305000D02*
X19050000Y31750000D01*
X17780000Y33020000D02*
X16510000Y33020000D01*
X19050000Y31750000D02*
X17780000Y33020000D01*
X25260300Y27216100D02*
X25323800Y27279600D01*
X24113007Y27305000D02*
X24138407Y27279600D01*
X24113007Y27321993D02*
X24113007Y27305000D01*
X19685000Y35560000D02*
X22225000Y33020000D01*
X24096014Y27305000D02*
X24113007Y27321993D01*
X23495000Y27305000D02*
X24096014Y27305000D01*
X24138407Y27279600D02*
X25323800Y27279600D01*
X12700000Y35560000D02*
X19685000Y35560000D01*
X22225000Y33020000D02*
X22225000Y28575000D01*
X22225000Y28575000D02*
X23495000Y27305000D01*
X12700000Y15240000D02*
X16510000Y15240000D01*
X24138407Y17119600D02*
X24113007Y17145000D01*
X25323800Y17119600D02*
X24138407Y17119600D01*
X24113007Y17145000D02*
X22225000Y17145000D01*
X22225000Y17145000D02*
X20955000Y18415000D01*
X20955000Y18415000D02*
X20320000Y19050000D01*
X20320000Y19050000D02*
X20320000Y19050000D01*
X53975000Y19685000D02*
X45720000Y19685000D01*
X53975000Y22225000D02*
X46990000Y22225000D01*
M02*
