M48
; DRILL file {KiCad 5.1.5-52549c5~84~ubuntu18.04.1} date Thu 18 Jun 2020 03:22:47 PM EDT
; FORMAT={-:-/ absolute / inch / decimal}
; #@! TF.CreationDate,2020-06-18T15:22:47-04:00
; #@! TF.GenerationSoftware,Kicad,Pcbnew,5.1.5-52549c5~84~ubuntu18.04.1
; #@! TF.FileFunction,Plated,1,4,PTH
FMAT,2
INCH
T1C0.0315
T2C0.0350
T3C0.0394
%
G90
G05
T1
X2.575Y1.5
X2.575Y1.3
X2.5Y1.125
X2.275Y1.7
X2.375Y1.7
X2.425Y1.9
X2.525Y1.9
X2.75Y1.175
X2.75Y1.075
X2.475Y1.4
X2.5Y0.925
X2.6Y1.025
X2.5Y0.725
X2.5Y0.625
T2
X0.625Y0.6
X0.775Y0.75
X1.15Y0.575
X1.4Y0.575
X1.575Y0.325
X1.7Y1.575
X1.7Y1.35
X1.75Y1.875
X1.85Y1.575
X1.875Y0.325
X1.95Y1.075
X1.975Y1.875
X2.2Y0.725
X2.2Y0.45
X2.325Y1.25
X2.325Y1.0
X2.425Y1.55
X2.575Y1.7
T3
X1.75Y2.025
X1.85Y2.025
X1.95Y2.025
X2.05Y2.025
X2.15Y2.025
X1.3Y2.15
X1.3Y2.05
X2.1Y1.575
X2.1Y1.475
X2.1Y1.375
X2.1Y1.275
X2.1Y1.175
X2.1Y1.075
X2.1Y0.975
X2.1Y0.875
X2.1Y0.775
X1.572Y1.774
X1.572Y1.674
X1.572Y1.574
X1.572Y1.474
X1.572Y1.374
X1.572Y1.274
X1.572Y1.174
X1.572Y1.074
X1.572Y0.974
X1.572Y0.874
X1.572Y0.774
X1.572Y0.674
X1.572Y0.574
X1.572Y0.474
X0.972Y1.774
X0.972Y1.674
X0.972Y1.574
X0.972Y1.474
X0.972Y1.374
X0.972Y1.274
X0.972Y1.174
X0.972Y1.074
X0.972Y0.974
X0.972Y0.874
X0.972Y0.774
X0.972Y0.674
X0.972Y0.574
X0.972Y0.474
X0.475Y1.7
X0.475Y1.6
X0.475Y1.5
X0.475Y1.4
X0.475Y1.3
X0.475Y1.2
X0.475Y1.1
X0.475Y1.0
X0.475Y0.9
X0.475Y0.8
X0.475Y0.7
X0.475Y0.6
T0
M30
