G04 #@! TF.GenerationSoftware,KiCad,Pcbnew,5.1.4-e60b266~84~ubuntu18.04.1*
G04 #@! TF.CreationDate,2019-09-29T16:38:53-04:00*
G04 #@! TF.ProjectId,ib4,6962342e-6b69-4636-9164-5f7063625858,rev?*
G04 #@! TF.SameCoordinates,Original*
G04 #@! TF.FileFunction,Copper,L4,Bot*
G04 #@! TF.FilePolarity,Positive*
%FSLAX46Y46*%
G04 Gerber Fmt 4.6, Leading zero omitted, Abs format (unit mm)*
G04 Created by KiCad (PCBNEW 5.1.4-e60b266~84~ubuntu18.04.1) date 2019-09-29 16:38:53*
%MOMM*%
%LPD*%
G04 APERTURE LIST*
%ADD10C,1.676400*%
%ADD11C,1.778000*%
%ADD12R,1.700000X1.700000*%
%ADD13O,1.700000X1.700000*%
%ADD14R,2.400000X2.400000*%
%ADD15C,2.400000*%
%ADD16C,3.000000*%
%ADD17C,1.700000*%
G04 APERTURE END LIST*
D10*
X105994200Y-33591500D03*
X105994200Y-36131500D03*
X105994200Y-38671500D03*
X105994200Y-41211500D03*
X105994200Y-43751500D03*
X105994200Y-46291500D03*
X105994200Y-48831500D03*
X105994200Y-51371500D03*
X105994200Y-53911500D03*
X105994200Y-56451500D03*
X105994200Y-58991500D03*
X105994200Y-61531500D03*
X105994200Y-64071500D03*
X105994200Y-66611500D03*
X121234200Y-66611500D03*
X121234200Y-64071500D03*
X121234200Y-61531500D03*
X121234200Y-58991500D03*
X121234200Y-56451500D03*
X121234200Y-53911500D03*
X121234200Y-51371500D03*
X121234200Y-48831500D03*
X121234200Y-46291500D03*
X121234200Y-43751500D03*
X121234200Y-41211500D03*
X121234200Y-38671500D03*
X121234200Y-36131500D03*
X121234200Y-33591500D03*
D11*
X108534200Y-33591500D03*
X111074200Y-33591500D03*
X113614200Y-33591500D03*
X116154200Y-33591500D03*
X118694200Y-33591500D03*
D12*
X87477600Y-71831200D03*
D13*
X87477600Y-69291200D03*
X87477600Y-66751200D03*
X87477600Y-64211200D03*
X87477600Y-61671200D03*
X87477600Y-59131200D03*
X87477600Y-56591200D03*
X87477600Y-54051200D03*
X87477600Y-51511200D03*
X87477600Y-48971200D03*
X87477600Y-46431200D03*
X87477600Y-43891200D03*
D12*
X48793400Y-71882000D03*
D13*
X48793400Y-69342000D03*
X48793400Y-66802000D03*
X48793400Y-64262000D03*
X48793400Y-61722000D03*
X48793400Y-59182000D03*
X48793400Y-56642000D03*
X48793400Y-54102000D03*
X48793400Y-51562000D03*
D14*
X101498400Y-87134700D03*
D15*
X104998400Y-87134700D03*
D12*
X126650000Y-61440000D03*
D13*
X126650000Y-58900000D03*
X126650000Y-56360000D03*
X126650000Y-53820000D03*
X126650000Y-51280000D03*
X126650000Y-48740000D03*
X126650000Y-46200000D03*
X126650000Y-43660000D03*
D16*
X93091000Y-66903600D03*
X100253800Y-64096900D03*
X97104200Y-71361300D03*
X96761300Y-84404200D03*
X120500000Y-74450000D03*
X112100000Y-65700000D03*
X109931200Y-83921600D03*
X109000000Y-68300000D03*
D17*
X87477600Y-66751200D02*
X55283100Y-66751200D01*
X52692300Y-69342000D02*
X48793400Y-69342000D01*
X55283100Y-66751200D02*
X52692300Y-69342000D01*
X87477600Y-66751200D02*
X92938600Y-66751200D01*
X92938600Y-66751200D02*
X93091000Y-66903600D01*
X105994200Y-64071500D02*
X100279200Y-64071500D01*
X100279200Y-64071500D02*
X100253800Y-64096900D01*
X93091000Y-66903600D02*
X93091000Y-67348100D01*
X93091000Y-67348100D02*
X97104200Y-71361300D01*
X101498400Y-87134700D02*
X99491800Y-87134700D01*
X99491800Y-87134700D02*
X96761300Y-84404200D01*
X126650000Y-63990000D02*
X126750000Y-64090000D01*
X126650000Y-61440000D02*
X126650000Y-63990000D01*
X126750000Y-64090000D02*
X126750000Y-68200000D01*
X126750000Y-68200000D02*
X120500000Y-74450000D01*
X105994200Y-64071500D02*
X110471500Y-64071500D01*
X110471500Y-64071500D02*
X112100000Y-65700000D01*
X86275519Y-59131200D02*
X86237419Y-59169300D01*
X87477600Y-59131200D02*
X86275519Y-59131200D01*
X86237419Y-59169300D02*
X55956200Y-59169300D01*
X53428900Y-56642000D02*
X48793400Y-56642000D01*
X55956200Y-59169300D02*
X53428900Y-56642000D01*
X43865800Y-56642000D02*
X48793400Y-56642000D01*
X42037000Y-76479400D02*
X42037000Y-58470800D01*
X46342300Y-80784700D02*
X42037000Y-76479400D01*
X129771500Y-38671500D02*
X132350000Y-41250000D01*
X121234200Y-38671500D02*
X129771500Y-38671500D01*
X132350000Y-41250000D02*
X132350000Y-73200000D01*
X132350000Y-73200000D02*
X128950000Y-76600000D01*
X42037000Y-58470800D02*
X43865800Y-56642000D01*
X122515300Y-80784700D02*
X46342300Y-80784700D01*
X128950000Y-76600000D02*
X126700000Y-76600000D01*
X126700000Y-76600000D02*
X122515300Y-80784700D01*
X55771081Y-61671200D02*
X55758381Y-61658500D01*
X87477600Y-61671200D02*
X55771081Y-61671200D01*
X55758381Y-61658500D02*
X54495700Y-61658500D01*
X52019200Y-59182000D02*
X48793400Y-59182000D01*
X54495700Y-61658500D02*
X52019200Y-59182000D01*
X120048807Y-36131500D02*
X121234200Y-36131500D01*
X117678200Y-38502107D02*
X120048807Y-36131500D01*
X117678200Y-61595000D02*
X117678200Y-38502107D01*
X87477600Y-61671200D02*
X92951300Y-61671200D01*
X113855500Y-71196200D02*
X115417600Y-69634100D01*
X115417600Y-69634100D02*
X115417600Y-63855600D01*
X92951300Y-61671200D02*
X102476300Y-71196200D01*
X102476300Y-71196200D02*
X113855500Y-71196200D01*
X115417600Y-63855600D02*
X117678200Y-61595000D01*
X50685700Y-61722000D02*
X48793400Y-61722000D01*
X87477600Y-64211200D02*
X53174900Y-64211200D01*
X53174900Y-64211200D02*
X50685700Y-61722000D01*
X125400000Y-41200000D02*
X122431093Y-41200000D01*
X122419593Y-41211500D02*
X121234200Y-41211500D01*
X125650000Y-40950000D02*
X125400000Y-41200000D01*
X129750000Y-42550000D02*
X128150000Y-40950000D01*
X127700000Y-73750000D02*
X129750000Y-71700000D01*
X122431093Y-41200000D02*
X122419593Y-41211500D01*
X128150000Y-40950000D02*
X125650000Y-40950000D01*
X129750000Y-71700000D02*
X129750000Y-42550000D01*
X125750000Y-73750000D02*
X127700000Y-73750000D01*
X48793400Y-61722000D02*
X46189900Y-61722000D01*
X46189900Y-61722000D02*
X44742100Y-63169800D01*
X44742100Y-63169800D02*
X44742100Y-75285600D01*
X44742100Y-75285600D02*
X47053500Y-77597000D01*
X121903000Y-77597000D02*
X125750000Y-73750000D01*
X47053500Y-77597000D02*
X121903000Y-77597000D01*
X48844200Y-71831200D02*
X48793400Y-71882000D01*
X87477600Y-71831200D02*
X48844200Y-71831200D01*
X90027600Y-71831200D02*
X92974000Y-74777600D01*
X87477600Y-71831200D02*
X90027600Y-71831200D01*
X92974000Y-74777600D02*
X115697000Y-74777600D01*
X115697000Y-74777600D02*
X118237000Y-72237600D01*
X118237000Y-72237600D02*
X118237000Y-65659000D01*
X119824500Y-64071500D02*
X121234200Y-64071500D01*
X118237000Y-65659000D02*
X119824500Y-64071500D01*
X126650000Y-58900000D02*
X124200000Y-58900000D01*
X124200000Y-58900000D02*
X123800000Y-59300000D01*
X123800000Y-59300000D02*
X123800000Y-63300000D01*
X123028500Y-64071500D02*
X121234200Y-64071500D01*
X123800000Y-63300000D02*
X123028500Y-64071500D01*
X104998400Y-87134700D02*
X106718100Y-87134700D01*
X106718100Y-87134700D02*
X109931200Y-83921600D01*
X105994200Y-66611500D02*
X107311500Y-66611500D01*
X107311500Y-66611500D02*
X109000000Y-68300000D01*
X121285700Y-56400000D02*
X121234200Y-56451500D01*
X126700000Y-56400000D02*
X121285700Y-56400000D01*
X121285700Y-53860000D02*
X121234200Y-53911500D01*
X126700000Y-53860000D02*
X121285700Y-53860000D01*
X121285700Y-51320000D02*
X121234200Y-51371500D01*
X126700000Y-51320000D02*
X121285700Y-51320000D01*
X121325700Y-48740000D02*
X121234200Y-48831500D01*
X126650000Y-48740000D02*
X121325700Y-48740000D01*
X126558500Y-46291500D02*
X126650000Y-46200000D01*
X121234200Y-46291500D02*
X126558500Y-46291500D01*
X121325700Y-43660000D02*
X121234200Y-43751500D01*
X126650000Y-43660000D02*
X121325700Y-43660000D01*
X87617300Y-53911500D02*
X87477600Y-54051200D01*
X105994200Y-53911500D02*
X87617300Y-53911500D01*
X87617300Y-51371500D02*
X87477600Y-51511200D01*
X105994200Y-51371500D02*
X87617300Y-51371500D01*
X87617300Y-56451500D02*
X87477600Y-56591200D01*
X105994200Y-56451500D02*
X87617300Y-56451500D01*
X104808807Y-48831500D02*
X104796107Y-48844200D01*
X105994200Y-48831500D02*
X104808807Y-48831500D01*
X104796107Y-48844200D02*
X98640900Y-48844200D01*
X98640900Y-48844200D02*
X90144600Y-40347900D01*
X88208898Y-40347900D02*
X88145398Y-40284400D01*
X90144600Y-40347900D02*
X88208898Y-40347900D01*
X88145398Y-40284400D02*
X84886800Y-40284400D01*
X71069200Y-54102000D02*
X48793400Y-54102000D01*
X84886800Y-40284400D02*
X71069200Y-54102000D01*
X99949000Y-46291500D02*
X105994200Y-46291500D01*
X91274900Y-37617400D02*
X99949000Y-46291500D01*
X48793400Y-51562000D02*
X70015100Y-51562000D01*
X83959700Y-37617400D02*
X91274900Y-37617400D01*
X70015100Y-51562000D02*
X83959700Y-37617400D01*
M02*
