G04 #@! TF.GenerationSoftware,KiCad,Pcbnew,5.1.4-e60b266~84~ubuntu18.04.1*
G04 #@! TF.CreationDate,2019-09-29T16:38:53-04:00*
G04 #@! TF.ProjectId,ib4,6962342e-6b69-4636-9164-5f7063625858,rev?*
G04 #@! TF.SameCoordinates,Original*
G04 #@! TF.FileFunction,Copper,L1,Top*
G04 #@! TF.FilePolarity,Positive*
%FSLAX46Y46*%
G04 Gerber Fmt 4.6, Leading zero omitted, Abs format (unit mm)*
G04 Created by KiCad (PCBNEW 5.1.4-e60b266~84~ubuntu18.04.1) date 2019-09-29 16:38:53*
%MOMM*%
%LPD*%
G04 APERTURE LIST*
%ADD10C,1.676400*%
%ADD11C,1.778000*%
%ADD12R,1.700000X1.700000*%
%ADD13O,1.700000X1.700000*%
%ADD14R,2.400000X2.400000*%
%ADD15C,2.400000*%
%ADD16C,3.000000*%
G04 APERTURE END LIST*
D10*
X105994200Y-33591500D03*
X105994200Y-36131500D03*
X105994200Y-38671500D03*
X105994200Y-41211500D03*
X105994200Y-43751500D03*
X105994200Y-46291500D03*
X105994200Y-48831500D03*
X105994200Y-51371500D03*
X105994200Y-53911500D03*
X105994200Y-56451500D03*
X105994200Y-58991500D03*
X105994200Y-61531500D03*
X105994200Y-64071500D03*
X105994200Y-66611500D03*
X121234200Y-66611500D03*
X121234200Y-64071500D03*
X121234200Y-61531500D03*
X121234200Y-58991500D03*
X121234200Y-56451500D03*
X121234200Y-53911500D03*
X121234200Y-51371500D03*
X121234200Y-48831500D03*
X121234200Y-46291500D03*
X121234200Y-43751500D03*
X121234200Y-41211500D03*
X121234200Y-38671500D03*
X121234200Y-36131500D03*
X121234200Y-33591500D03*
D11*
X108534200Y-33591500D03*
X111074200Y-33591500D03*
X113614200Y-33591500D03*
X116154200Y-33591500D03*
X118694200Y-33591500D03*
D12*
X87477600Y-71831200D03*
D13*
X87477600Y-69291200D03*
X87477600Y-66751200D03*
X87477600Y-64211200D03*
X87477600Y-61671200D03*
X87477600Y-59131200D03*
X87477600Y-56591200D03*
X87477600Y-54051200D03*
X87477600Y-51511200D03*
X87477600Y-48971200D03*
X87477600Y-46431200D03*
X87477600Y-43891200D03*
D12*
X48793400Y-71882000D03*
D13*
X48793400Y-69342000D03*
X48793400Y-66802000D03*
X48793400Y-64262000D03*
X48793400Y-61722000D03*
X48793400Y-59182000D03*
X48793400Y-56642000D03*
X48793400Y-54102000D03*
X48793400Y-51562000D03*
D14*
X101498400Y-87134700D03*
D15*
X104998400Y-87134700D03*
D12*
X126650000Y-61440000D03*
D13*
X126650000Y-58900000D03*
X126650000Y-56360000D03*
X126650000Y-53820000D03*
X126650000Y-51280000D03*
X126650000Y-48740000D03*
X126650000Y-46200000D03*
X126650000Y-43660000D03*
D16*
X93091000Y-66903600D03*
X100253800Y-64096900D03*
X97104200Y-71361300D03*
X96761300Y-84404200D03*
X120500000Y-74450000D03*
X112100000Y-65700000D03*
X109931200Y-83921600D03*
X109000000Y-68300000D03*
M02*
