M48
; DRILL file {KiCad 5.1.4-e60b266~84~ubuntu18.04.1} date Sun 29 Sep 2019 04:38:58 PM EDT
; FORMAT={-:-/ absolute / inch / decimal}
; #@! TF.CreationDate,2019-09-29T16:38:58-04:00
; #@! TF.GenerationSoftware,Kicad,Pcbnew,5.1.4-e60b266~84~ubuntu18.04.1
FMAT,2
INCH
T1C0.0394
T2C0.0472
T3C0.0591
T4C0.1063
%
G90
G05
T1
X4.9862Y-1.7189
X4.9862Y-1.8189
X4.9862Y-1.9189
X4.9862Y-2.0189
X4.9862Y-2.1189
X4.9862Y-2.2189
X4.9862Y-2.3189
X4.9862Y-2.4189
X1.921Y-2.03
X1.921Y-2.13
X1.921Y-2.23
X1.921Y-2.33
X1.921Y-2.43
X1.921Y-2.53
X1.921Y-2.63
X1.921Y-2.73
X1.921Y-2.83
X4.773Y-1.3225
X4.773Y-1.4225
X4.773Y-1.5225
X4.773Y-1.6225
X4.773Y-1.7225
X4.773Y-1.8225
X4.773Y-1.9225
X4.773Y-2.0225
X4.773Y-2.1225
X4.773Y-2.2225
X4.773Y-2.3225
X4.773Y-2.4225
X4.773Y-2.5225
X4.773Y-2.6225
X4.273Y-1.3225
X4.373Y-1.3225
X4.473Y-1.3225
X4.573Y-1.3225
X4.673Y-1.3225
X3.444Y-1.728
X3.444Y-1.828
X3.444Y-1.928
X3.444Y-2.028
X3.444Y-2.128
X3.444Y-2.228
X3.444Y-2.328
X3.444Y-2.428
X3.444Y-2.528
X3.444Y-2.628
X3.444Y-2.728
X3.444Y-2.828
X4.173Y-1.3225
X4.173Y-1.4225
X4.173Y-1.5225
X4.173Y-1.6225
X4.173Y-1.7225
X4.173Y-1.8225
X4.173Y-1.9225
X4.173Y-2.0225
X4.173Y-2.1225
X4.173Y-2.2225
X4.173Y-2.3225
X4.173Y-2.4225
X4.173Y-2.5225
X4.173Y-2.6225
T2
X3.996Y-3.4305
X4.1338Y-3.4305
T3
X3.665Y-2.634
X3.8095Y-3.323
X3.823Y-2.8095
X3.947Y-2.5235
X4.2913Y-2.689
X4.328Y-3.304
X4.4134Y-2.5866
X4.7441Y-2.9311
T4
X1.539Y-3.4419
X5.0823Y-3.4419
X5.0823Y-1.2765
X1.539Y-1.2765
T0
M30
