G04 #@! TF.GenerationSoftware,KiCad,Pcbnew,5.0.2-bee76a0~70~ubuntu18.04.1*
G04 #@! TF.CreationDate,2019-10-03T16:27:03-04:00*
G04 #@! TF.ProjectId,ib4,6962342e-6b69-4636-9164-5f7063625858,rev?*
G04 #@! TF.SameCoordinates,PX36d1408PY5556ba8*
G04 #@! TF.FileFunction,Copper,L4,Bot*
G04 #@! TF.FilePolarity,Positive*
%FSLAX46Y46*%
G04 Gerber Fmt 4.6, Leading zero omitted, Abs format (unit mm)*
G04 Created by KiCad (PCBNEW 5.0.2-bee76a0~70~ubuntu18.04.1) date Thu 03 Oct 2019 04:27:03 PM EDT*
%MOMM*%
%LPD*%
G01*
G04 APERTURE LIST*
G04 #@! TA.AperFunction,ComponentPad*
%ADD10C,1.676400*%
G04 #@! TD*
G04 #@! TA.AperFunction,ComponentPad*
%ADD11R,1.700000X1.700000*%
G04 #@! TD*
G04 #@! TA.AperFunction,ComponentPad*
%ADD12O,1.700000X1.700000*%
G04 #@! TD*
G04 #@! TA.AperFunction,ComponentPad*
%ADD13C,1.700000*%
G04 #@! TD*
G04 #@! TA.AperFunction,Conductor*
%ADD14C,0.100000*%
G04 #@! TD*
G04 #@! TA.AperFunction,Conductor*
%ADD15C,1.700000*%
G04 #@! TD*
G04 #@! TA.AperFunction,ComponentPad*
%ADD16R,2.400000X2.400000*%
G04 #@! TD*
G04 #@! TA.AperFunction,ComponentPad*
%ADD17C,2.400000*%
G04 #@! TD*
G04 #@! TA.AperFunction,ViaPad*
%ADD18C,3.000000*%
G04 #@! TD*
G04 APERTURE END LIST*
D10*
G04 #@! TO.P,JP2,14*
G04 #@! TO.N,N/C*
X26263600Y46278800D03*
G04 #@! TO.P,JP2,13*
X26263600Y43738800D03*
G04 #@! TO.P,JP2,12*
G04 #@! TO.N,SDA*
X26263600Y41198800D03*
G04 #@! TO.P,JP2,11*
G04 #@! TO.N,SCL*
X26263600Y38658800D03*
G04 #@! TO.P,JP2,10*
G04 #@! TO.N,N/C*
X26263600Y36118800D03*
G04 #@! TO.P,JP2,9*
X26263600Y33578800D03*
G04 #@! TO.P,JP2,8*
X26263600Y31038800D03*
G04 #@! TO.P,JP2,7*
G04 #@! TO.N,E_~RST*
X26263600Y28498800D03*
G04 #@! TO.P,JP2,6*
G04 #@! TO.N,E_BUSY*
X26263600Y25958800D03*
G04 #@! TO.P,JP2,5*
G04 #@! TO.N,E_CS*
X26263600Y23418800D03*
G04 #@! TO.P,JP2,4*
G04 #@! TO.N,N/C*
X26263600Y20878800D03*
G04 #@! TO.P,JP2,3*
X26263600Y18338800D03*
G04 #@! TO.P,JP2,2*
G04 #@! TO.N,GND*
X26263600Y15798800D03*
G04 #@! TO.P,JP2,1*
G04 #@! TO.N,N/C*
X26263600Y13258800D03*
G04 #@! TD*
G04 #@! TO.P,JP4,14*
G04 #@! TO.N,DRV*
X41503600Y13258800D03*
G04 #@! TO.P,JP4,13*
G04 #@! TO.N,+3V3*
X41503600Y15798800D03*
G04 #@! TO.P,JP4,12*
G04 #@! TO.N,N/C*
X41503600Y18338800D03*
G04 #@! TO.P,JP4,11*
X41503600Y20878800D03*
G04 #@! TO.P,JP4,10*
X41503600Y23418800D03*
G04 #@! TO.P,JP4,9*
X41503600Y25958800D03*
G04 #@! TO.P,JP4,8*
X41503600Y28498800D03*
G04 #@! TO.P,JP4,7*
X41503600Y31038800D03*
G04 #@! TO.P,JP4,6*
X41503600Y33578800D03*
G04 #@! TO.P,JP4,5*
G04 #@! TO.N,A5*
X41503600Y36118800D03*
G04 #@! TO.P,JP4,4*
G04 #@! TO.N,SCK*
X41503600Y38658800D03*
G04 #@! TO.P,JP4,3*
G04 #@! TO.N,MOSI*
X41503600Y41198800D03*
G04 #@! TO.P,JP4,2*
G04 #@! TO.N,MISO*
X41503600Y43738800D03*
G04 #@! TO.P,JP4,1*
G04 #@! TO.N,N/C*
X41503600Y46278800D03*
G04 #@! TD*
D11*
G04 #@! TO.P,J1,1*
G04 #@! TO.N,+3V3*
X18288000Y8115300D03*
D12*
G04 #@! TO.P,J1,2*
G04 #@! TO.N,N/C*
X18288000Y10655300D03*
G04 #@! TO.P,J1,3*
G04 #@! TO.N,GND*
X18288000Y13195300D03*
G04 #@! TO.P,J1,4*
G04 #@! TO.N,SCK*
X18288000Y15735300D03*
G04 #@! TO.P,J1,5*
G04 #@! TO.N,MISO*
X18288000Y18275300D03*
G04 #@! TO.P,J1,6*
G04 #@! TO.N,MOSI*
X18288000Y20815300D03*
G04 #@! TO.P,J1,7*
G04 #@! TO.N,E_CS*
X18288000Y23355300D03*
G04 #@! TO.P,J1,8*
G04 #@! TO.N,E_BUSY*
X18288000Y25895300D03*
G04 #@! TO.P,J1,9*
G04 #@! TO.N,E_~RST*
X18288000Y28435300D03*
G04 #@! TO.P,J1,10*
G04 #@! TO.N,N/C*
X18288000Y30975300D03*
G04 #@! TO.P,J1,11*
X18288000Y33515300D03*
G04 #@! TO.P,J1,12*
X18288000Y36055300D03*
G04 #@! TD*
D11*
G04 #@! TO.P,J2,1*
G04 #@! TO.N,+3V3*
X53327300Y16205200D03*
D12*
G04 #@! TO.P,J2,2*
G04 #@! TO.N,GND*
X53327300Y13665200D03*
G04 #@! TO.P,J2,3*
G04 #@! TO.N,DELAY*
X53327300Y11125200D03*
G04 #@! TO.P,J2,4*
G04 #@! TO.N,DRV*
X53327300Y8585200D03*
G04 #@! TO.P,J2,5*
G04 #@! TO.N,N/C*
X53327300Y6045200D03*
G04 #@! TD*
D13*
G04 #@! TO.P,J5,1*
G04 #@! TO.N,+3V3*
X46723300Y48145700D03*
D14*
G04 #@! TD*
G04 #@! TO.N,+3V3*
G04 #@! TO.C,J5*
G36*
X46723300Y46943618D02*
X45521218Y48145700D01*
X46723300Y49347782D01*
X47925382Y48145700D01*
X46723300Y46943618D01*
X46723300Y46943618D01*
G37*
D13*
G04 #@! TO.P,J5,2*
G04 #@! TO.N,N/C*
X48519351Y46349649D03*
D15*
G04 #@! TD*
G04 #@! TO.N,N/C*
G04 #@! TO.C,J5*
X48519351Y46349649D02*
X48519351Y46349649D01*
D13*
G04 #@! TO.P,J5,3*
G04 #@! TO.N,GND*
X50315402Y44553598D03*
D15*
G04 #@! TD*
G04 #@! TO.N,GND*
G04 #@! TO.C,J5*
X50315402Y44553598D02*
X50315402Y44553598D01*
D13*
G04 #@! TO.P,J5,4*
G04 #@! TO.N,SCL*
X52111454Y42757546D03*
D15*
G04 #@! TD*
G04 #@! TO.N,SCL*
G04 #@! TO.C,J5*
X52111454Y42757546D02*
X52111454Y42757546D01*
D13*
G04 #@! TO.P,J5,5*
G04 #@! TO.N,N/C*
X53907505Y40961495D03*
D15*
G04 #@! TD*
G04 #@! TO.N,N/C*
G04 #@! TO.C,J5*
X53907505Y40961495D02*
X53907505Y40961495D01*
D13*
G04 #@! TO.P,J5,6*
G04 #@! TO.N,SDA*
X55703556Y39165444D03*
D15*
G04 #@! TD*
G04 #@! TO.N,SDA*
G04 #@! TO.C,J5*
X55703556Y39165444D02*
X55703556Y39165444D01*
D13*
G04 #@! TO.P,J5,7*
G04 #@! TO.N,N/C*
X57499607Y37369393D03*
D15*
G04 #@! TD*
G04 #@! TO.N,N/C*
G04 #@! TO.C,J5*
X57499607Y37369393D02*
X57499607Y37369393D01*
D12*
G04 #@! TO.P,J6,2*
G04 #@! TO.N,GND*
X45859700Y10464800D03*
D11*
G04 #@! TO.P,J6,1*
G04 #@! TO.N,DELAY*
X48399700Y10464800D03*
G04 #@! TD*
D16*
G04 #@! TO.P,J3,1*
G04 #@! TO.N,GND*
X55130700Y23253700D03*
D17*
G04 #@! TO.P,J3,2*
G04 #@! TO.N,+3V3*
X55130700Y26753700D03*
G04 #@! TO.P,J3,3*
G04 #@! TO.N,A5*
X55130700Y30253700D03*
G04 #@! TD*
D11*
G04 #@! TO.P,J4,1*
G04 #@! TO.N,A5*
X49123600Y30022800D03*
D12*
G04 #@! TO.P,J4,2*
G04 #@! TO.N,+3V3*
X49123600Y27482800D03*
G04 #@! TD*
D18*
G04 #@! TO.N,GND*
X29781500Y15811500D03*
X34671000Y6502400D03*
G04 #@! TO.N,+3V3*
X22339300Y8089900D03*
X29438600Y5092700D03*
X44894500Y27660600D03*
X47574200Y34531300D03*
G04 #@! TO.N,DRV*
X41503600Y9766300D03*
X46672500Y5651500D03*
G04 #@! TO.N,SCL*
X33794700Y41414700D03*
G04 #@! TO.N,SDA*
X30759400Y44348400D03*
G04 #@! TO.N,SCL*
X39535100Y49441100D03*
G04 #@! TO.N,SDA*
X36614100Y52146200D03*
G04 #@! TD*
D15*
G04 #@! TO.N,GND*
X22474707Y13195300D02*
X19490081Y13195300D01*
X25078207Y15798800D02*
X22474707Y13195300D01*
X26263600Y15798800D02*
X25078207Y15798800D01*
G04 #@! TO.N,MOSI*
X17022419Y20878800D02*
X16319500Y20878800D01*
X16319500Y20878800D02*
X14147800Y23050500D01*
X14147800Y23050500D02*
X14147800Y39573200D01*
X14147800Y39573200D02*
X23634700Y49060100D01*
X23634700Y49060100D02*
X31089600Y49060100D01*
X38950900Y41198800D02*
X41503600Y41198800D01*
X31089600Y49060100D02*
X38950900Y41198800D01*
G04 #@! TO.N,A5*
X41595100Y36210300D02*
X41503600Y36118800D01*
G04 #@! TO.N,GND*
X26263600Y15798800D02*
X27448993Y15798800D01*
X19490081Y13195300D02*
X18288000Y13195300D01*
X27461693Y15811500D02*
X29781500Y15811500D01*
X27448993Y15798800D02*
X27461693Y15811500D01*
X47053500Y13690600D02*
X46939200Y13576300D01*
X52006500Y13690600D02*
X47053500Y13690600D01*
X47053500Y13690600D02*
X46774100Y13690600D01*
X45859700Y12776200D02*
X45859700Y10464800D01*
X46774100Y13690600D02*
X45859700Y12776200D01*
X45859700Y9262719D02*
X42248481Y5651500D01*
X45859700Y10464800D02*
X45859700Y9262719D01*
X42248481Y5651500D02*
X35521900Y5651500D01*
X35521900Y5651500D02*
X34671000Y6502400D01*
X53474319Y13665200D02*
X53487019Y13677900D01*
X53327300Y13665200D02*
X53474319Y13665200D01*
X53487019Y13677900D02*
X55714900Y13677900D01*
X55714900Y13677900D02*
X56362600Y14325600D01*
X55130700Y20353700D02*
X55130700Y23253700D01*
X56362600Y19121800D02*
X55130700Y20353700D01*
X56362600Y14325600D02*
X56362600Y19121800D01*
X58030700Y23253700D02*
X55130700Y23253700D01*
X58572400Y23795400D02*
X58030700Y23253700D01*
X58572400Y32626300D02*
X58572400Y23795400D01*
X47669352Y39465348D02*
X52857400Y34277300D01*
X56921400Y34277300D02*
X58572400Y32626300D01*
X52857400Y34277300D02*
X56921400Y34277300D01*
X52031900Y13665200D02*
X52006500Y13690600D01*
X53327300Y13665200D02*
X52031900Y13665200D01*
G04 #@! TO.N,MOSI*
X17085919Y20815300D02*
X17022419Y20878800D01*
X18288000Y20815300D02*
X17085919Y20815300D01*
G04 #@! TO.N,MISO*
X40318207Y43738800D02*
X41503600Y43738800D01*
X14681200Y18275300D02*
X11277600Y21678900D01*
X18288000Y18275300D02*
X14681200Y18275300D01*
X22491700Y51473100D02*
X32583907Y51473100D01*
X11277600Y21678900D02*
X11277600Y40259000D01*
X11277600Y40259000D02*
X22491700Y51473100D01*
X32583907Y51473100D02*
X40318207Y43738800D01*
G04 #@! TO.N,SCK*
X37287200Y36423600D02*
X39522400Y38658800D01*
X39522400Y38658800D02*
X41503600Y38658800D01*
X17085919Y15735300D02*
X14884400Y13533781D01*
X18288000Y15735300D02*
X17085919Y15735300D01*
X14884400Y5448300D02*
X16459200Y3873500D01*
X14884400Y13533781D02*
X14884400Y5448300D01*
X16459200Y3873500D02*
X23063200Y3873500D01*
X37287200Y18097500D02*
X37287200Y20497800D01*
X23063200Y3873500D02*
X37287200Y18097500D01*
X37287200Y20497800D02*
X37287200Y36423600D01*
G04 #@! TO.N,+3V3*
X41503600Y15798800D02*
X40318207Y15798800D01*
X22313900Y8115300D02*
X22339300Y8089900D01*
X18288000Y8115300D02*
X22313900Y8115300D01*
X40318207Y15798800D02*
X39141400Y15798800D01*
X39141400Y15798800D02*
X29438600Y6096000D01*
X29438600Y6096000D02*
X29438600Y5092700D01*
X43002200Y15798800D02*
X41503600Y15798800D01*
X52006500Y16230600D02*
X50939700Y16230600D01*
X49123600Y18046700D02*
X49123600Y27482800D01*
X50939700Y16230600D02*
X49123600Y18046700D01*
X49852700Y26753700D02*
X49123600Y27482800D01*
X55130700Y26753700D02*
X49852700Y26753700D01*
X49123600Y27482800D02*
X45072300Y27482800D01*
X45072300Y27482800D02*
X44894500Y27660600D01*
X44272200Y38925500D02*
X47574200Y35623500D01*
X44272200Y45872400D02*
X44272200Y38925500D01*
X45162549Y46762749D02*
X44272200Y45872400D01*
X45834300Y47498000D02*
X45162549Y46826249D01*
X47574200Y35623500D02*
X47574200Y34531300D01*
X45162549Y46826249D02*
X45162549Y46762749D01*
X45810249Y47473949D02*
X45162549Y46826249D01*
X46051549Y47473949D02*
X45810249Y47473949D01*
X46723300Y48145700D02*
X46051549Y47473949D01*
X52031900Y16205200D02*
X52006500Y16230600D01*
X53327300Y16205200D02*
X52031900Y16205200D01*
X49123600Y18046700D02*
X47231300Y18046700D01*
X44983400Y15798800D02*
X43002200Y15798800D01*
X47231300Y18046700D02*
X44983400Y15798800D01*
G04 #@! TO.N,E_CS*
X26200100Y23355300D02*
X26263600Y23418800D01*
X18288000Y23355300D02*
X26200100Y23355300D01*
G04 #@! TO.N,E_BUSY*
X18351500Y25958800D02*
X18288000Y25895300D01*
X26263600Y25958800D02*
X18351500Y25958800D01*
G04 #@! TO.N,E_~RST*
X26200100Y28435300D02*
X26263600Y28498800D01*
X18288000Y28435300D02*
X26200100Y28435300D01*
G04 #@! TO.N,DRV*
X41567100Y13322300D02*
X41503600Y13258800D01*
X41503600Y10642600D02*
X41503600Y13258800D01*
X41503600Y9766300D02*
X41503600Y10642600D01*
X52125219Y8585200D02*
X51706119Y8166100D01*
X53327300Y8585200D02*
X52125219Y8585200D01*
X51706119Y8166100D02*
X49187100Y8166100D01*
X49187100Y8166100D02*
X46672500Y5651500D01*
G04 #@! TO.N,SCL*
X26263600Y38658800D02*
X31242000Y38658800D01*
X31242000Y38658800D02*
X31242000Y38862000D01*
X31242000Y38862000D02*
X33794700Y41414700D01*
G04 #@! TO.N,SDA*
X26263600Y41198800D02*
X27609800Y41198800D01*
X27609800Y41198800D02*
X30759400Y44348400D01*
G04 #@! TO.N,GND*
X47669352Y41907548D02*
X50315402Y44553598D01*
X47669352Y39465348D02*
X47669352Y41907548D01*
G04 #@! TO.N,SCL*
X52961453Y43607545D02*
X52961453Y45506553D01*
X52111454Y42757546D02*
X52961453Y43607545D01*
X52961453Y45506553D02*
X52997100Y45542200D01*
X52997100Y45542200D02*
X52997100Y46456600D01*
X52997100Y46456600D02*
X47942500Y51511200D01*
X47942500Y51511200D02*
X42062400Y51511200D01*
X42062400Y51511200D02*
X41605200Y51511200D01*
X41605200Y51511200D02*
X39535100Y49441100D01*
G04 #@! TO.N,SDA*
X56553555Y40015443D02*
X56553555Y47624545D01*
X55703556Y39165444D02*
X56553555Y40015443D01*
X56553555Y47624545D02*
X50152300Y54025800D01*
X50152300Y54025800D02*
X38684200Y54025800D01*
X38684200Y54025800D02*
X38493700Y54025800D01*
X38493700Y54025800D02*
X36614100Y52146200D01*
G04 #@! TO.N,DELAY*
X49060100Y11125200D02*
X48399700Y10464800D01*
X53327300Y11125200D02*
X49060100Y11125200D01*
G04 #@! TO.N,A5*
X49354500Y30253700D02*
X49123600Y30022800D01*
X55130700Y30253700D02*
X49354500Y30253700D01*
X46573600Y30022800D02*
X44160600Y32435800D01*
X49123600Y30022800D02*
X46573600Y30022800D01*
X44160600Y32435800D02*
X44160600Y34960400D01*
X43002200Y36118800D02*
X41503600Y36118800D01*
X44160600Y34960400D02*
X43002200Y36118800D01*
G04 #@! TD*
M02*
