M48
;DRILL file {KiCad 5.0.2-bee76a0~70~ubuntu18.04.1} date Thu 03 Oct 2019 04:27:10 PM EDT
;FORMAT={-:-/ absolute / metric / decimal}
FMAT,2
METRIC,TZ
T1C1.000
T2C1.200
T3C1.500
T4C2.700
%
G90
G05
T1
X49.124Y30.023
X49.124Y27.483
X26.264Y46.279
X26.264Y43.739
X26.264Y41.199
X26.264Y38.659
X26.264Y36.119
X26.264Y33.579
X26.264Y31.039
X26.264Y28.499
X26.264Y25.959
X26.264Y23.419
X26.264Y20.879
X26.264Y18.339
X26.264Y15.799
X26.264Y13.259
X45.86Y10.465
X48.4Y10.465
X53.327Y16.205
X53.327Y13.665
X53.327Y11.125
X53.327Y8.585
X53.327Y6.045
X41.504Y46.279
X41.504Y43.739
X41.504Y41.199
X41.504Y38.659
X41.504Y36.119
X41.504Y33.579
X41.504Y31.039
X41.504Y28.499
X41.504Y25.959
X41.504Y23.419
X41.504Y20.879
X41.504Y18.339
X41.504Y15.799
X41.504Y13.259
X46.723Y48.146
X48.519Y46.35
X50.315Y44.554
X52.111Y42.758
X53.908Y40.961
X55.704Y39.165
X57.5Y37.369
X18.288Y36.055
X18.288Y33.515
X18.288Y30.975
X18.288Y28.435
X18.288Y25.895
X18.288Y23.355
X18.288Y20.815
X18.288Y18.275
X18.288Y15.735
X18.288Y13.195
X18.288Y10.655
X18.288Y8.115
T2
X55.131Y30.254
X55.131Y26.754
X55.131Y23.254
T3
X22.339Y8.09
X29.439Y5.093
X29.781Y15.811
X30.759Y44.348
X33.795Y41.415
X34.671Y6.502
X36.614Y52.146
X39.535Y49.441
X41.504Y9.766
X44.895Y27.661
X46.672Y5.651
X47.574Y34.531
T4
X62.52Y9.484
X62.52Y49.484
X7.52Y9.484
X7.52Y49.484
T0
M30
